<svg id="Слой_1" data-name="Слой 1" xmlns="http://www.w3.org/2000/svg" viewBox="0 0 775.73 796.33"><defs><style>.cls-1{fill:#f2f2f2;stroke:#221f20;}.cls-1,.cls-3{stroke-linecap:round;}.cls-1,.cls-2,.cls-3{stroke-miterlimit:10;stroke-width:12px;}.cls-2{fill:#fad86d;stroke:#000;}.cls-3{fill:#188b30;stroke:#231f20;}.cls-4{fill:#010101;}</style></defs><title>калькулятор</title><path class="cls-1" d="M100.24,700.27H558V228.83L439.15,110H100.24Z"/><path class="cls-2" d="M688.54,331.23,584.44,585.68l-62.65,57.67-4.26-85L621.64,303.86a14.22,14.22,0,0,1,18.54-7.77l40.59,16.61A14.21,14.21,0,0,1,688.54,331.23Z"/><path class="cls-3" d="M660.47,304.39,529.62,624.21a4.6,4.6,0,0,1-8.86-1.51l-3.23-64.39L621.64,303.86a14.22,14.22,0,0,1,18.54-7.77Z"/><path class="cls-4" d="M391.9,217.63h-112a9,9,0,1,1,0-18.07h112a9,9,0,0,1,0,18.07Z"/><path class="cls-4" d="M232.52,397.73H161.09a9,9,0,0,1-9-9V317.26a9,9,0,0,1,9-9h71.43a9,9,0,0,1,9,9v71.43A9,9,0,0,1,232.52,397.73Zm-62.4-18.07h53.36V326.29H170.12Z"/><path class="cls-4" d="M488.27,340.33H294.92a9,9,0,1,1,0-18.07H488.27a9,9,0,0,1,0,18.07Z"/><path class="cls-4" d="M450.32,383.7H294.92a9,9,0,0,1,0-18.08h155.4a9,9,0,0,1,0,18.08Z"/><path class="cls-4" d="M488.27,459H294.92a9,9,0,0,1,0-18.08H488.27a9,9,0,0,1,0,18.08Z"/><path class="cls-4" d="M352.74,502.35H294.92a9,9,0,1,1,0-18.07h57.82a9,9,0,1,1,0,18.07Z"/><path class="cls-4" d="M488.27,577.64H294.92a9,9,0,1,1,0-18.07H488.27a9,9,0,0,1,0,18.07Z"/><path class="cls-4" d="M459.35,621H294.92a9,9,0,1,1,0-18.07H459.35a9,9,0,1,1,0,18.07Z"/><path class="cls-4" d="M277.11,304.44a8,8,0,0,0-11.31-.75h0l-58.48,51.17-18.75-18.74a8,8,0,1,0-11.33,11.33l24,24.05a8,8,0,0,0,10.95.36l64.12-56.11a8,8,0,0,0,.76-11.31Z"/></svg>